<svg width="51.995mm" height="52.279mm" version="1.1" viewBox="0 0 51.995 52.279" xmlns="http://www.w3.org/2000/svg">
 <g transform="translate(89.958 -137.61)">
  <g transform="translate(.85045 -.28348)">
   <path d="m-90.809 163.48 0.28348-4.2522 0.75595-3.4018 0.94494-2.7403 1.2284-1.8899z"/>
   <path d="m-90.714 167.35 7.5595-22.017 1.2048-0.99219-7.1343 28.962-1.0394-2.8112z"/>
   <path d="m-88.824 174.2 10.725-32.719 1.3938-0.63784-9.8274 37.68z"/>
   <path d="m-86.155 179 13.796-39.829 0.87407-0.42523-11.977 43.562-1.7481-1.9608z"/>
   <path d="m-82.659 182.99 14.694-44.79 0.37798-0.14174 0.21261 0.25986-12.568 46.964z"/>
   <path d="m-79.399 185.66 15.072-47.672 0.37798-0.0945 0.28348 0.21261-12.709 49.302z"/>
   <path d="m-75.761 187.72 15.568-49.397 0.37798-0.14174 0.30711 0.23623-12.946 50.483-1.9135-0.54334z"/>
   <path d="m-72.004 189.06 14.93-50.011 0.44885 0.0236 0.30711 0.23623-12.568 50.507-1.819-0.37798z"/>
   <path d="m-68.248 189.77 14.505-49.302 0.47247-0.0945 0.25986 0.28349-11.505 49.515-2.1734-0.16537z"/>
   <path d="m-63.807 190.03 13.584-47.2 0.4016-0.30711 0.33073 0.0945 0.04725 0.7087-11.198 46.467z"/>
   <path d="m-59.862 189.49 13.206-43.94 0.11812-0.18899 0.51972 0.68509-10.536 42.617-1.5355 0.51972z"/>
   <path d="m-55.539 188.31 12.048-39.191 0.59059 0.87407-8.599 36.404-1.9135 1.0394z"/>
   <path d="m-50.271 185.57 9.473-31.656 0.68508 1.7009-6.1421 26.695-1.63 1.6064z"/>
   <path d="m-43.987 179.43 4.8192-19.891 0.35435 2.3151-2.7403 14.009-1.2048 2.0789z"/>
  </g>
 </g>
</svg>
